<svg width="176" height="182" viewBox="0 0 176 182" fill="none" xmlns="http://www.w3.org/2000/svg">
<path d="M88 181.807C136.601 181.807 176 160.215 176 133.579C176 106.943 136.601 85.3511 88 85.3511C39.3989 85.3511 0 106.943 0 133.579C0 160.215 39.3989 181.807 88 181.807Z" fill="#F0F0F0"/>
<path d="M120.831 161.438C126.353 161.438 130.829 158.735 130.829 155.401C130.829 152.068 126.353 149.365 120.831 149.365C115.309 149.365 110.833 152.068 110.833 155.401C110.833 158.735 115.309 161.438 120.831 161.438Z" fill="#E0E0E0"/>
<path d="M87.3331 170.67C101.905 170.67 113.717 163.538 113.717 154.741C113.717 145.943 101.905 138.811 87.3331 138.811C72.7617 138.811 60.9492 145.943 60.9492 154.741C60.9492 163.538 72.7617 170.67 87.3331 170.67Z" fill="#E0E0E0"/>
<path d="M93.8545 24.5217C93.5628 24.9709 93.293 25.4352 93.0461 25.9128C92.1986 27.6609 92.1515 29.766 91.6179 31.6577C91.0842 33.5494 90.2877 35.3508 88.9379 36.7213C87.5492 38.0626 85.8254 38.9647 83.9664 39.3229C82.1167 39.6785 80.2319 39.7929 78.3553 39.6635C76.925 39.6435 75.5016 39.4508 74.1136 39.089C71.2335 38.2437 69.0793 36.1181 69.0126 32.7205C68.9773 30.718 69.9779 28.7278 72.6265 27.5091C70.6646 25.8923 70.4998 22.4454 72.3126 20.644C73.525 19.4417 75.2868 19.06 76.6288 18.0424C78.9753 16.2943 78.834 13.3849 79.9798 10.9229C81.1922 8.30539 83.2309 6.20534 85.7517 4.97693C89.5029 3.19193 94.3214 3.92234 97.9745 5.69094C100.513 6.92198 102.734 9.27326 103.095 12.1744C103.487 15.3874 101.435 18.6004 98.6259 19.971C97.59 20.4757 96.4717 20.7671 95.4122 21.2267C95.262 21.2773 95.1268 21.3678 95.0199 21.4893C94.9221 21.6695 94.8708 21.873 94.8707 22.0802C94.7177 22.9655 94.3698 23.8014 93.8545 24.5217Z" fill="#263238"/>
<path d="M95.4865 34.4333C98.4418 34.3723 100.79 31.8174 100.732 28.7268C100.674 25.6362 98.2307 23.1802 95.2754 23.2412C92.3201 23.3021 89.9716 25.857 90.0299 28.9476C90.0882 32.0382 92.5312 34.4942 95.4865 34.4333Z" fill="#263238"/>
<path d="M140.548 62.6263C138.997 62.293 137.476 61.8236 136 61.2229C136 61.2229 138.931 60.591 139.139 59.3025C139.41 57.7104 137.527 59.2328 134.894 58.8429C132.571 58.4941 130.577 58.9414 129.4 58.5762L111.406 51.8301C111.406 51.8301 105.041 37.4311 103.228 35.3219C101.415 33.2127 100.234 32.7572 97.519 32.3838L98.5353 44.3372C98.5353 44.3372 103.432 54.0173 104.813 56.3768C106.195 58.7362 106.497 59.3148 109.785 60.431C114.101 61.9 125.582 64.0831 128.89 65.5931C133.206 67.5505 138.048 69.4873 140.662 68.0019C141.839 67.333 142.447 66.1307 142.796 65.3346C143.267 64.2021 142.094 62.9177 140.548 62.6263Z" fill="#B16668"/>
<path d="M86.0654 19.1951C88.0554 18.0399 89.9752 16.7572 91.8139 15.3543C95.7102 12.4121 97.3072 10.3604 97.3072 10.3604C97.3072 10.3604 97.9193 15.1942 94.741 18.0051C91.5627 20.816 86.8463 20.9596 86.7246 20.976C86.603 20.9924 86.0654 19.1951 86.0654 19.1951Z" fill="#DF7962"/>
<path d="M80.8545 9.95459L78.1902 8.36655C78.2701 8.17208 78.3881 7.9973 78.5366 7.85347C78.6851 7.70965 78.8608 7.59997 79.0523 7.53153C79.2438 7.46309 79.4469 7.43741 79.6485 7.45613C79.8501 7.47485 80.0457 7.53757 80.2227 7.64023C80.5872 7.87209 80.8546 8.23913 80.9717 8.66811C81.0888 9.09709 81.047 9.55647 80.8545 9.95459V9.95459Z" fill="#263238"/>
<path d="M80.9058 9.10054L80.0701 5.91625C80.2621 5.8487 80.4654 5.82335 80.6672 5.84176C80.869 5.86018 81.065 5.92199 81.2429 6.0233C81.4208 6.12461 81.5768 6.26325 81.7011 6.43054C81.8254 6.59782 81.9154 6.79015 81.9653 6.99547C82.0744 7.42138 82.0259 7.87465 81.8295 8.26483C81.6331 8.65502 81.3033 8.95343 80.9058 9.10054V9.10054Z" fill="#263238"/>
<path d="M100.776 142.772L101.561 141.742C101.953 144.13 104.111 146.793 106.191 148.779C107.843 150.355 110.307 152.284 110.244 153.9C110.166 155.829 107.105 156.338 105.563 156.055C103.77 155.722 101.451 154.659 100.188 153.034C99.3007 151.894 98.0451 150.396 97.4095 149.501C96.7738 148.607 95.3141 147.601 94.9727 146.563C94.7844 145.993 95.0081 144.745 95.271 143.691C95.5142 142.722 95.7771 141.639 96.095 141.75V142.349C96.4873 142.788 98.2178 143.371 99.4028 143.416C100.164 143.465 100.784 143.383 100.776 142.772Z" fill="#263238"/>
<path d="M74.9731 146.473C74.7265 147.937 74.5953 149.419 74.5807 150.905C74.5297 153.593 74.0588 154.549 73.9961 156.752C73.9254 159.276 74.4277 160.856 75.4086 162.259C76.3896 163.662 79.5091 164.262 80.596 161.849C81.6829 159.436 81.5416 157.885 81.1924 155.41C80.8353 152.854 80.8 151.442 80.5803 149.489C80.3998 147.774 80.1879 146.465 80.1879 146.465L74.9731 146.473Z" fill="#263238"/>
<path d="M73.8939 115.82C74.4943 109.337 75.385 106.616 75.5027 105.151C75.5027 105.151 76.4405 89.9355 76.0717 77.0588C75.8912 70.8585 75.7578 64.0262 80.0387 56.6728L99.8658 56.3691C102.083 64.9864 104.308 96.419 103.417 105.693C102.895 111.081 101.337 138.299 101.337 138.299V140.466C101.401 141.528 101.737 142.553 102.31 143.432C103.241 145.126 104.349 146.706 105.614 148.143C106.191 148.779 106.736 149.446 107.247 150.142C108.526 151.701 107.517 152.353 105.548 152.078C103.472 151.787 101.73 150.105 100.815 148.796C99.4499 146.822 96.3579 143.65 96.1068 142.513H96.0833V142.378C96.0833 142.378 95.9577 140.658 95.789 138.607C95.6203 136.555 92.3949 119.883 92.3203 113.904C92.2889 111.056 93.007 106.821 93.007 106.821L90.7468 84.8923C90.7468 84.8923 87.2154 100.572 86.4306 107.215C85.7361 112.989 82.7461 130.006 81.0785 137.679C80.4543 140.56 80.1566 143.507 80.1917 146.461V146.481C80.1917 147.335 80.4625 154.138 80.2153 156.063C79.7012 160.084 76.2914 159.727 75.6204 156.518C75.0515 153.79 75.0201 147.519 74.9926 146.473C74.973 145.718 74.9377 144.881 74.8945 143.986C74.8239 143.436 73.1955 123.358 73.8939 115.82Z" fill="#B16668"/>
<path d="M85.6456 32.523L80.117 32.8307C81.1999 39.5645 78.155 45.4899 78.155 45.4899L80.1837 56.159C80.0738 56.3477 80.4858 57.8701 79.7206 59.7946C83.2521 64.7188 95.7064 66.2001 101.353 61.8464C101.203 60.1479 100.968 58.459 100.646 56.7868L101.718 50.4674C101.612 45.3586 98.3824 35.617 97.5231 32.3547L92.8459 32.0142L85.6456 32.523Z" fill="#DF7962"/>
<path d="M97.311 10.3604C98.8806 11.0826 100.411 13.6226 100.387 20.7298C100.368 26.7496 98.602 28.2761 97.7073 28.7234C96.8127 29.1706 95.0744 28.9449 93.3911 28.67V32.1333C93.3911 32.1333 94.6624 33.4341 94.219 34.2589C93.7756 35.0837 92.1276 35.7731 89.5732 34.936C86.6774 33.984 86.1398 32.5314 86.1398 32.5314L85.9593 24.386C85.9593 24.386 84.9823 25.457 83.2715 23.8895C81.855 22.5928 81.3488 20.3687 82.4083 19.15C83.4677 17.9312 84.8371 17.8328 86.0692 19.1951C86.0692 19.1951 88.6432 19.5644 92.0413 17.3362C95.5139 15.0547 96.9696 12.6706 97.311 10.3604Z" fill="#B16668"/>
<path d="M97.4604 18.6825C97.4604 18.8448 97.5065 19.0035 97.5927 19.1385C97.6789 19.2734 97.8015 19.3786 97.9449 19.4407C98.0883 19.5028 98.2461 19.5191 98.3983 19.4874C98.5506 19.4558 98.6904 19.3776 98.8001 19.2628C98.9099 19.148 98.9846 19.0018 99.0149 18.8426C99.0452 18.6834 99.0297 18.5184 98.9703 18.3684C98.9109 18.2185 98.8103 18.0903 98.6812 18.0001C98.5522 17.9099 98.4004 17.8618 98.2452 17.8618C98.0371 17.8618 97.8375 17.9483 97.6903 18.1022C97.5431 18.2561 97.4604 18.4648 97.4604 18.6825Z" fill="#263238"/>
<path d="M91.3508 19.0809C91.3469 19.2441 91.3896 19.4047 91.4734 19.5423C91.5573 19.68 91.6784 19.7884 91.8214 19.8536C91.9644 19.9189 92.1228 19.9381 92.2763 19.9088C92.4298 19.8795 92.5715 19.803 92.6832 19.6891C92.7949 19.5752 92.8716 19.429 92.9035 19.2693C92.9354 19.1095 92.9211 18.9435 92.8623 18.7923C92.8035 18.6412 92.703 18.5117 92.5736 18.4206C92.4441 18.3295 92.2916 18.2808 92.1356 18.2808C91.9308 18.2807 91.7341 18.3643 91.5875 18.5138C91.4409 18.6633 91.356 18.8669 91.3508 19.0809Z" fill="#263238"/>
<path d="M92.5436 24.4883L94.5644 25.1448C94.5363 25.2903 94.4797 25.4281 94.3982 25.5496C94.3167 25.6711 94.212 25.7736 94.0907 25.8507C93.9695 25.9278 93.8342 25.9778 93.6936 25.9976C93.5529 26.0173 93.4099 26.0064 93.2735 25.9655C92.9973 25.8593 92.7691 25.6487 92.634 25.3752C92.4989 25.1018 92.4667 24.7854 92.5436 24.4883V24.4883Z" fill="#9A4A4D"/>
<path d="M99.4851 17.1925L97.5232 16.3718C97.569 16.2333 97.6416 16.1062 97.7364 15.9984C97.8313 15.8906 97.9463 15.8044 98.0744 15.7451C98.2026 15.6858 98.341 15.6547 98.4811 15.6538C98.6211 15.6529 98.7599 15.6822 98.8887 15.7399C99.1476 15.8554 99.3541 16.0707 99.4651 16.3412C99.5762 16.6117 99.5834 16.9166 99.4851 17.1925V17.1925Z" fill="#263238"/>
<path d="M86.0813 19.0146V21.5588C86.2375 21.5651 86.3933 21.5376 86.5389 21.478C86.6844 21.4184 86.8166 21.3279 86.9272 21.2123C87.0377 21.0967 87.1242 20.9585 87.1812 20.8063C87.2382 20.654 87.2645 20.4911 87.2585 20.3278C87.2591 19.9933 87.1376 19.6711 86.9189 19.4271C86.7001 19.1831 86.4005 19.0356 86.0813 19.0146V19.0146Z" fill="#263238"/>
<path d="M94.8904 18.2266L95.5064 23.1179L97.59 22.0592L94.8904 18.2266Z" fill="#9A4A4D"/>
<path d="M93.3836 28.6703C91.5983 28.4528 87.9216 27.3818 87.3213 25.7979C87.5601 26.5833 88.0195 27.2754 88.6397 27.7839C89.7541 28.7811 93.3836 29.8357 93.3836 29.8357V28.6703Z" fill="#9A4A4D"/>
<path d="M102.93 72.6715C102.823 67.2434 102.232 61.8376 101.165 56.5243C101.6 51.1283 102.715 46.4298 101.376 41.4564C100.592 38.4937 99.0222 33.9717 97.5154 32.3672C97.5154 32.3672 95.7183 31.6532 94.1959 32.1251C94.1959 32.1251 97.0681 35.0345 97.9 41.7108C95.7379 41.8011 91.3982 41.9283 88.8163 42.2279C88.2239 38.8469 87.1554 35.5764 85.6458 32.5232C84.3279 32.4058 83.0007 32.4803 81.7023 32.7448C83.8263 37.4423 85.0424 42.5322 85.2809 47.7224C85.3554 49.4869 85.4182 51.4566 85.3162 53.3113C85.3162 53.3113 84.9591 56.8977 80.1799 56.155C77.2017 61.1407 75.5458 64.4276 75.4438 82.4172C75.4164 87.1034 75.2319 105.351 75.2319 105.351C73.27 111.716 73.4073 120.805 73.4073 120.805C73.4073 120.805 73.7409 122.927 78.4534 123.197C83.1659 123.468 84.3392 121.893 84.3392 121.893C84.3392 121.893 85.9087 114.059 86.7327 106.71C87.5567 99.3604 90.684 85.782 90.684 85.782L92.8107 106.595C92.3722 108.627 92.1316 110.7 92.0927 112.783C92.0927 115.245 92.697 120.112 92.697 120.112C92.697 120.112 93.7878 121.572 97.6331 121.412C101.479 121.252 102.644 119.837 102.644 119.837C102.644 119.837 103.699 105.725 103.888 99.7297C104.037 94.8056 103.511 81.0466 102.93 72.6715Z" fill="#37474F"/>
<path d="M80.3093 66.8197C78.984 66.4971 77.7173 65.9525 76.5581 65.2071L77.1075 62.8599C76.1214 62.7574 75.1274 62.7739 74.145 62.9091C73.5289 62.9666 72.9678 62.4619 72.4342 61.8956C72.1085 61.5386 69.0008 58.0465 67.0585 54.6735L77.7117 44.5215L78.4573 47.119C83.2561 44.8006 82.3811 36.9465 80.1014 32.8307C77.8138 32.7815 75.7577 33.2944 73.164 36.1135C70.5076 39.0229 61.6671 47.8658 59.6111 50.886C57.555 53.9061 57.4294 56.8935 66.0383 65.1414C67.8753 66.9082 69.8077 68.5633 71.826 70.0984C76.6052 73.5248 79.3598 72.3102 81.1765 71.2843C84.6687 69.3229 83.3346 67.5707 80.3093 66.8197Z" fill="#B16668"/>
<path d="M90.6763 85.8111L92.4577 73.9315C92.4577 73.9315 96.2952 73.3529 99.8502 69.311C99.8502 69.311 98.6731 72.8482 94.3568 74.9123L92.4695 86.0696L92.2458 101.252L90.6763 85.8111Z" fill="#263238"/>
<path d="M51.8613 65.6587C52.3116 66.6364 52.4747 67.7316 52.3301 68.8062C52.1855 69.8808 51.7396 70.8864 51.0489 71.6961C50.3581 72.5059 49.4534 73.0834 48.4489 73.3557C47.4445 73.6281 46.3855 73.5831 45.4055 73.2264C44.4255 72.8697 43.5686 72.2173 42.9429 71.3517C42.3172 70.486 41.9509 69.4458 41.8901 68.3625C41.8294 67.2793 42.0769 66.2015 42.6015 65.2652C43.1261 64.329 43.9043 63.5763 44.8376 63.1023C45.4589 62.7855 46.134 62.6004 46.824 62.5575C47.514 62.5146 48.2052 62.6149 48.858 62.8525C49.5108 63.0901 50.1122 63.4603 50.6276 63.9419C51.1431 64.4236 51.5623 65.007 51.8613 65.6587V65.6587Z" fill="#37474F"/>
<path d="M41.6164 71.2433C37.614 70.9315 36.2015 67.8703 38.4773 64.3988C40.7531 60.9272 45.807 58.3626 49.8093 58.6539C53.8117 58.9452 55.2282 62.0228 52.972 65.4944C50.7158 68.9659 45.6226 71.5429 41.6164 71.2433Z" fill="#455A64"/>
<path d="M40.6197 69.5366C36.4918 69.2165 35.036 66.0609 37.3629 62.4827C39.6897 58.9045 44.9163 56.2619 49.0441 56.5819C53.172 56.902 54.6278 60.0576 52.3009 63.6358C49.9741 67.214 44.7436 69.8525 40.6197 69.5366Z" fill="#37474F"/>
<path d="M39.5918 67.7882C35.3383 67.4599 33.8355 64.2059 36.2329 60.5169C38.6304 56.8279 44.0218 54.1073 48.2752 54.4355C52.5287 54.7638 54.0276 58.0179 51.6301 61.7028C49.2326 65.3877 43.8413 68.1165 39.5918 67.7882Z" fill="#455A64"/>
<path d="M38.5281 65.9868C34.1452 65.6462 32.5952 62.2937 35.0673 58.4939C37.5393 54.694 43.0954 51.8832 47.4784 52.2238C51.8613 52.5643 53.4112 55.9169 50.9392 59.7167C48.4672 63.5165 42.911 66.3192 38.5281 65.9868Z" fill="#37474F"/>
<path d="M37.4845 64.0589C33.0113 63.7143 31.43 60.292 33.953 56.4142C36.4761 52.5364 42.1421 49.6722 46.6153 50.0169C51.0884 50.3616 52.6698 53.7839 50.1467 57.6616C47.6237 61.5394 41.9577 64.4036 37.4845 64.0589Z" fill="#455A64"/>
<path d="M17.2258 3.29431C14.2701 4.78856 11.6247 6.87701 9.44083 9.44043C7.25691 12.0038 5.57719 14.992 4.49758 18.2343C3.41797 21.4766 2.9596 24.9096 3.14867 28.3371C3.33773 31.7647 4.17052 35.1197 5.59947 38.2107C14.2319 56.902 30.4138 52.5728 33.8943 60.0904C34.4476 61.2927 35.7581 62.1093 37.7004 62.257C41.5772 62.5566 46.4977 60.074 48.6872 56.7091C49.7819 55.0267 49.986 53.4263 49.4327 52.2445C45.9523 44.7106 59.2659 34.1565 50.6334 15.4652C49.2053 12.3709 47.208 9.60126 44.7557 7.31466C42.3034 5.02806 39.4442 3.26933 36.3416 2.139C33.239 1.00868 29.9538 0.528915 26.6738 0.727151C23.3938 0.925386 20.1833 1.79773 17.2258 3.29431V3.29431Z" fill="#DF7962"/>
<g opacity="0.6">
<path d="M17.2258 3.29431C14.2701 4.78856 11.6247 6.87701 9.44083 9.44043C7.25691 12.0038 5.57719 14.992 4.49758 18.2343C3.41797 21.4766 2.9596 24.9096 3.14867 28.3371C3.33773 31.7647 4.17052 35.1197 5.59947 38.2107C14.2319 56.902 30.4138 52.5728 33.8943 60.0904C34.4476 61.2927 35.7581 62.1093 37.7004 62.257C41.5772 62.5566 46.4977 60.074 48.6872 56.7091C49.7819 55.0267 49.986 53.4263 49.4327 52.2445C45.9523 44.7106 59.2659 34.1565 50.6334 15.4652C49.2053 12.3709 47.208 9.60126 44.7557 7.31466C42.3034 5.02806 39.4442 3.26933 36.3416 2.139C33.239 1.00868 29.9538 0.528915 26.6738 0.727151C23.3938 0.925386 20.1833 1.79773 17.2258 3.29431V3.29431Z" fill="white"/>
</g>
<path d="M38.5793 60.5499C35.66 60.3242 34.6319 58.0878 36.276 55.5642C37.9201 53.0406 41.6203 51.1653 44.5161 51.391C47.4119 51.6167 48.4635 53.8531 46.8194 56.3767C45.1753 58.9003 41.4947 60.7756 38.5793 60.5499Z" fill="#DF7962"/>
<path d="M44.2884 53.8696C44.0873 53.9689 43.8569 53.9815 43.647 53.9047C43.437 53.8279 43.2644 53.668 43.1662 53.4593C41.0867 48.9274 39.5297 44.153 38.5282 39.2367C38.2337 37.8164 38.0318 36.3769 37.924 34.928C37.1205 35.0162 36.3104 35.0162 35.5069 34.928C34.0624 34.7721 32.6477 34.3947 31.3084 33.8078C30.9143 35.2623 30.3166 36.6478 29.5348 37.9194C29.1051 38.6337 28.6039 39.2981 28.0398 39.9014C29.0573 40.8912 30.009 41.9523 30.8885 43.0775C33.9592 46.9574 36.5753 51.2073 38.6813 55.7367C38.7714 55.9505 38.7784 56.1926 38.7008 56.4117C38.6231 56.6307 38.4669 56.8096 38.2653 56.9103C38.1639 56.9591 38.0542 56.9865 37.9426 56.9908C37.831 56.9952 37.7196 56.9764 37.615 56.9356C37.5103 56.8948 37.4144 56.8328 37.3328 56.7531C37.2511 56.6734 37.1853 56.5776 37.1392 56.4712C35.0818 52.0911 32.5458 47.9752 29.5819 44.206C28.7035 43.0836 27.7474 42.0303 26.7214 41.0545C24.9831 42.2855 23.1899 42.4497 21.8597 41.8998C20.5296 41.3499 19.7801 40.0943 20.0077 38.7689C20.0685 38.304 20.261 37.8688 20.5603 37.5193C20.8595 37.1697 21.252 36.9218 21.6871 36.8074C23.0055 36.4504 24.7752 37.148 26.7567 38.7483C27.2768 38.2125 27.7351 37.6148 28.1222 36.9674C28.8799 35.7351 29.4417 34.3826 29.7859 32.9625C27.9692 31.8094 26.8195 30.3444 26.5997 29.0354C26.5204 28.5065 26.6058 27.9649 26.8435 27.4907C27.0811 27.0165 27.4583 26.6348 27.9193 26.402C28.3803 26.1692 28.9008 26.0977 29.4036 26.198C29.9065 26.2983 30.3652 26.5652 30.7119 26.9591C31.5556 27.9562 31.9362 29.8315 31.6694 32.0146C32.9471 32.6145 34.3093 32.9942 35.7031 33.1389C36.4292 33.2256 37.1625 33.2256 37.8886 33.1389C37.924 30.5209 38.4968 28.6251 39.5877 27.7757C39.9454 27.499 40.373 27.3383 40.8174 27.3135C41.2617 27.2887 41.7032 27.4009 42.0872 27.6362C43.2211 28.2722 43.6999 29.6633 43.2643 31.0995C42.8288 32.5357 41.6006 33.8939 39.6112 34.5587C39.7016 36.0054 39.8957 37.4429 40.1919 38.8591C41.1711 43.631 42.6775 48.2676 44.6808 52.6755C44.7825 52.8852 44.8008 53.1284 44.7317 53.3521C44.6626 53.5757 44.5117 53.7618 44.312 53.8696H44.2884ZM21.9814 38.5678C21.8519 38.6334 21.7381 38.7648 21.6832 39.0889C21.5576 39.807 22.2639 40.1558 22.4679 40.2461C22.9388 40.4028 23.4367 40.4498 23.9268 40.3839C24.4169 40.318 24.8873 40.1407 25.3049 39.8645C23.7667 38.7114 22.6367 38.3749 22.0834 38.5268C22.048 38.5362 22.0137 38.5499 21.9814 38.5678V38.5678ZM39.5877 32.6711C40.054 32.4992 40.479 32.2233 40.8333 31.8627C41.1876 31.5021 41.4628 31.0652 41.6398 30.5825C41.7065 30.3486 41.887 29.5525 41.2671 29.2078C40.91 29.0067 40.7256 29.0888 40.5882 29.2078C40.1292 29.5484 39.6818 30.6809 39.5877 32.6711ZM28.6401 28.0219C28.497 28.0641 28.3756 28.1635 28.3021 28.2987C28.2287 28.4339 28.2091 28.5939 28.2478 28.7441C28.3616 29.4171 28.9854 30.2788 30.041 31.0667C30.1077 29.7125 29.8487 28.662 29.4171 28.1532C29.3304 28.0289 29.2011 27.9445 29.0563 27.9177C28.9114 27.8909 28.7623 27.9238 28.6401 28.0096V28.0219Z" fill="white"/>
<path d="M130.354 133.891L118.975 154.818C118.902 154.95 118.791 155.055 118.659 155.118C118.526 155.181 118.378 155.2 118.235 155.171C118.091 155.142 117.96 155.067 117.86 154.957C117.759 154.847 117.693 154.706 117.672 154.556L114.498 130.571L130.354 133.891Z" fill="#FFA8A7"/>
<path d="M117.68 154.564C117.701 154.715 117.767 154.855 117.867 154.966C117.968 155.076 118.099 155.151 118.242 155.18C118.386 155.209 118.534 155.19 118.667 155.127C118.799 155.064 118.91 154.959 118.983 154.827L121.204 150.723C120.524 150.948 119.798 150.972 119.106 150.794C118.413 150.615 117.782 150.24 117.28 149.71L117.001 149.418L117.68 154.564Z" fill="#263238"/>
<path d="M132.779 30.8325L132.387 33.0197L131.892 35.6582L114.506 130.575C115.82 132.914 118.124 134.425 120.6 135.188C124.363 136.361 128.538 135.82 130.342 133.891L147.709 39.0312L148.635 33.9799C147.862 37.2134 132.045 34.0866 132.779 30.8325Z" fill="#DF7962"/>
<path opacity="0.5" d="M132.779 30.8325L132.387 33.0197L131.892 35.6582L114.506 130.575C115.82 132.914 118.124 134.425 120.6 135.188C124.363 136.361 128.538 135.82 130.342 133.891L147.709 39.0312L148.635 33.9799C147.862 37.2134 132.045 34.0866 132.779 30.8325Z" fill="white"/>
<path d="M131.229 39.1587L130.342 44.05C130.04 45.4575 132.759 46.943 136.036 47.9196C140.383 49.2327 145.822 49.0029 146.238 47.1399L146.897 43.5371L147.113 42.2445C146.72 44.1075 141.27 44.3414 136.911 43.0283C133.772 42.0886 131.135 40.6688 131.213 39.3146C131.204 39.2621 131.21 39.208 131.229 39.1587V39.1587Z" fill="#EBEBEB"/>
<path d="M131.017 40.3806C130.307 43.6634 146.183 46.7369 146.889 43.4664L147.792 38.5751C147.085 41.8578 131.213 38.7597 131.92 35.4893L131.017 40.3806Z" fill="#DF7962"/>
<path d="M132.779 30.8325L131.885 35.6582C131.17 38.863 146.462 41.9775 147.709 39.0312C147.738 38.9743 147.759 38.9135 147.772 38.8507L148.635 33.9799C147.862 37.2134 132.045 34.0866 132.779 30.8325Z" fill="#EBEBEB"/>
<path opacity="0.1" d="M147.709 39.0313L148.635 33.98C148.286 35.4408 144.849 35.9045 141.231 35.33L122.867 135.713L118.998 154.827L130.377 133.899L147.709 39.0313Z" fill="black"/>
<path d="M152.465 13.077C152.465 13.0236 152.5 12.9703 152.512 12.9169C152.904 10.7913 149.652 8.3703 145.273 7.50447C140.894 6.63864 137.033 7.6604 136.64 9.77779L132.771 30.8245C132.461 32.2196 135.149 33.6969 138.394 34.694C142.734 36.0195 148.204 35.8266 148.627 33.9718L152.422 13.3847C152.422 13.2904 152.449 13.2001 152.461 13.1016C152.465 13.1057 152.461 13.0934 152.465 13.077Z" fill="#F28F8F"/>
<path opacity="0.1" d="M146.207 7.72217L141.231 35.3344C144.814 35.8719 148.294 35.4411 148.632 33.9802L152.422 13.3849C152.422 13.2906 152.449 13.2003 152.461 13.1018C152.461 13.1018 152.461 13.0772 152.461 13.0608C152.461 13.0444 152.497 12.9541 152.508 12.9007C152.865 10.9475 150.103 8.72341 146.207 7.72217Z" fill="black"/>
<path d="M152.512 12.9184C152.895 10.7938 149.655 8.37114 145.274 7.50721C140.894 6.64328 137.032 7.66524 136.649 9.78982C136.266 11.9144 139.506 14.3371 143.887 15.201C148.267 16.0649 152.129 15.043 152.512 12.9184Z" fill="#FFA8A7"/>
<path d="M19.9526 72.8846C19.8848 72.9646 19.8496 73.0691 19.8545 73.1759L19.9329 74.567C19.9261 74.6807 19.8933 74.7911 19.8374 74.8889C19.7814 74.9867 19.7038 75.0691 19.6112 75.1291C19.4895 75.2112 19.3718 75.3056 19.258 75.4C19.0775 75.56 18.8382 75.6421 18.7165 75.5641L18.6263 73.3482L17.2569 74.9896C17.2276 75.0241 17.2014 75.0611 17.1784 75.1004L16.5859 76.1673C16.4603 76.393 16.4368 76.6597 16.5388 76.7623L17.4805 77.7513C17.5333 77.8397 17.5673 77.9389 17.5802 78.0423C17.5931 78.1457 17.5845 78.2508 17.5551 78.3504V78.4119C17.4671 78.3682 17.3731 78.3392 17.2765 78.3257L15.9031 79.9671C15.8674 80.0079 15.84 80.0559 15.8225 80.1081C15.8049 80.1602 15.7977 80.2156 15.8011 80.2708L16.0366 81.8465C16.0509 81.9331 16.0952 82.0111 16.1611 82.0656C16.227 82.1201 16.3098 82.1473 16.3936 82.142L17.508 82.0517C17.5922 82.0465 17.676 82.0665 17.7497 82.1094C17.8233 82.1523 17.8838 82.2163 17.9239 82.2938C18.0382 82.5479 18.1694 82.7933 18.3163 83.0283C18.3563 83.1309 18.3742 83.2414 18.3688 83.352C18.3634 83.4627 18.3347 83.5707 18.2849 83.6685L17.8298 84.682C17.7277 84.9077 17.7356 85.1703 17.8298 85.2606L18.9677 86.2126C19.0658 86.2988 19.2541 86.2126 19.3993 86.0526L20.3292 84.9282C20.3959 84.8927 20.4727 84.884 20.545 84.9036C20.76 84.9806 20.9804 85.0396 21.2043 85.08C21.2871 85.098 21.3637 85.1392 21.4259 85.1992C21.4881 85.2592 21.5336 85.3357 21.5574 85.4206L21.9027 86.8158C21.9281 86.8992 21.9826 86.9695 22.0553 87.0128C22.128 87.0561 22.2135 87.0693 22.2951 87.0497L23.4958 86.7871C23.5731 86.7692 23.6423 86.7243 23.692 86.6599V86.6599L25.0692 84.9939L23.7116 84.9734C23.7181 84.8601 23.7507 84.7501 23.8068 84.6529C23.8628 84.5557 23.9406 84.4742 24.0333 84.4153C24.1546 84.3306 24.2712 84.2388 24.3826 84.1404C24.567 83.9844 24.8063 83.8983 24.928 83.9762L26.0149 84.6902C26.1091 84.7518 26.2582 84.6902 26.3759 84.5507L27.7492 82.9093L27.0508 82.4579L26.1718 81.8137C26.1189 81.7261 26.0848 81.6275 26.0719 81.5248C26.059 81.422 26.0677 81.3176 26.0973 81.2187C26.1444 81.0053 26.1836 80.7878 26.2111 80.5703C26.2265 80.4614 26.2686 80.3584 26.3332 80.2715C26.3978 80.1845 26.4828 80.1164 26.5799 80.0738L27.5727 79.7168C27.6462 79.6908 27.7114 79.6439 27.761 79.5814V79.5814L29.1422 77.9154L27.6982 78.2067L27.6237 77.6979C27.6102 77.6106 27.5662 77.5316 27.5003 77.4763C27.4343 77.4209 27.351 77.3932 27.2666 77.3984L26.1522 77.4927C26.0672 77.4968 25.9828 77.4759 25.9086 77.4324C25.8344 77.3889 25.7734 77.3245 25.7324 77.2465C25.6186 76.988 25.6617 76.5982 25.5166 76.3684C25.4342 76.2412 25.2733 76.1017 25.3753 75.876L25.8305 74.8624C25.8845 74.7758 25.9133 74.6745 25.9133 74.5711C25.9133 74.4676 25.8845 74.3664 25.8305 74.2797L24.6926 73.3277C24.5827 73.2333 24.3708 73.3277 24.2178 73.5411L23.6292 74.3618C23.5754 74.4545 23.4983 74.53 23.4062 74.5799C23.3142 74.6299 23.2108 74.6524 23.1073 74.6449C22.8944 74.5655 22.6751 74.5065 22.452 74.4685C22.3649 74.4512 22.284 74.4091 22.2182 74.3468C22.1525 74.2846 22.1044 74.2046 22.0793 74.1156L21.7379 72.7163C21.7208 72.658 21.6887 72.6057 21.6451 72.5651C21.6015 72.5246 21.5481 72.4974 21.4907 72.4865L21.318 71.2432L19.9526 72.8846ZM24.3865 79.2244C24.6415 80.9314 23.7037 82.5646 22.2872 82.8765C20.8707 83.1884 19.8191 81.785 19.5641 80.0779C19.309 78.3709 19.9565 77.0003 21.3612 76.6926C22.7659 76.3848 24.1314 77.5133 24.3865 79.2203V79.2244Z" fill="#DF7962"/>
<path opacity="0.3" d="M19.9526 72.8846C19.8848 72.9646 19.8496 73.0691 19.8545 73.1759L19.9329 74.567C19.9261 74.6807 19.8933 74.7911 19.8374 74.8889C19.7814 74.9867 19.7038 75.0691 19.6112 75.1291C19.4895 75.2112 19.3718 75.3056 19.258 75.4C19.0775 75.56 18.8382 75.6421 18.7165 75.5641L18.6263 73.3482L17.2569 74.9896C17.2276 75.0241 17.2014 75.0611 17.1784 75.1004L16.5859 76.1673C16.4603 76.393 16.4368 76.6597 16.5388 76.7623L17.4805 77.7513C17.5333 77.8397 17.5673 77.9389 17.5802 78.0423C17.5931 78.1457 17.5845 78.2508 17.5551 78.3504V78.4119C17.4671 78.3682 17.3731 78.3392 17.2765 78.3257L15.9031 79.9671C15.8674 80.0079 15.84 80.0559 15.8225 80.1081C15.8049 80.1602 15.7977 80.2156 15.8011 80.2708L16.0366 81.8465C16.0509 81.9331 16.0952 82.0111 16.1611 82.0656C16.227 82.1201 16.3098 82.1473 16.3936 82.142L17.508 82.0517C17.5922 82.0465 17.676 82.0665 17.7497 82.1094C17.8233 82.1523 17.8838 82.2163 17.9239 82.2938C18.0382 82.5479 18.1694 82.7933 18.3163 83.0283C18.3563 83.1309 18.3742 83.2414 18.3688 83.352C18.3634 83.4627 18.3347 83.5707 18.2849 83.6685L17.8298 84.682C17.7277 84.9077 17.7356 85.1703 17.8298 85.2606L18.9677 86.2126C19.0658 86.2988 19.2541 86.2126 19.3993 86.0526L20.3292 84.9282C20.3959 84.8927 20.4727 84.884 20.545 84.9036C20.76 84.9806 20.9804 85.0396 21.2043 85.08C21.2871 85.098 21.3637 85.1392 21.4259 85.1992C21.4881 85.2592 21.5336 85.3357 21.5574 85.4206L21.9027 86.8158C21.9281 86.8992 21.9826 86.9695 22.0553 87.0128C22.128 87.0561 22.2135 87.0693 22.2951 87.0497L23.4958 86.7871C23.5731 86.7692 23.6423 86.7243 23.692 86.6599V86.6599L25.0692 84.9939L23.7116 84.9734C23.7181 84.8601 23.7507 84.7501 23.8068 84.6529C23.8628 84.5557 23.9406 84.4742 24.0333 84.4153C24.1546 84.3306 24.2712 84.2388 24.3826 84.1404C24.567 83.9844 24.8063 83.8983 24.928 83.9762L26.0149 84.6902C26.1091 84.7518 26.2582 84.6902 26.3759 84.5507L27.7492 82.9093L27.0508 82.4579L26.1718 81.8137C26.1189 81.7261 26.0848 81.6275 26.0719 81.5248C26.059 81.422 26.0677 81.3176 26.0973 81.2187C26.1444 81.0053 26.1836 80.7878 26.2111 80.5703C26.2265 80.4614 26.2686 80.3584 26.3332 80.2715C26.3978 80.1845 26.4828 80.1164 26.5799 80.0738L27.5727 79.7168C27.6462 79.6908 27.7114 79.6439 27.761 79.5814V79.5814L29.1422 77.9154L27.6982 78.2067L27.6237 77.6979C27.6102 77.6106 27.5662 77.5316 27.5003 77.4763C27.4343 77.4209 27.351 77.3932 27.2666 77.3984L26.1522 77.4927C26.0672 77.4968 25.9828 77.4759 25.9086 77.4324C25.8344 77.3889 25.7734 77.3245 25.7324 77.2465C25.6186 76.988 25.6617 76.5982 25.5166 76.3684C25.4342 76.2412 25.2733 76.1017 25.3753 75.876L25.8305 74.8624C25.8845 74.7758 25.9133 74.6745 25.9133 74.5711C25.9133 74.4676 25.8845 74.3664 25.8305 74.2797L24.6926 73.3277C24.5827 73.2333 24.3708 73.3277 24.2178 73.5411L23.6292 74.3618C23.5754 74.4545 23.4983 74.53 23.4062 74.5799C23.3142 74.6299 23.2108 74.6524 23.1073 74.6449C22.8944 74.5655 22.6751 74.5065 22.452 74.4685C22.3649 74.4512 22.284 74.4091 22.2182 74.3468C22.1525 74.2846 22.1044 74.2046 22.0793 74.1156L21.7379 72.7163C21.7208 72.658 21.6887 72.6057 21.6451 72.5651C21.6015 72.5246 21.5481 72.4974 21.4907 72.4865L21.318 71.2432L19.9526 72.8846ZM24.3865 79.2244C24.6415 80.9314 23.7037 82.5646 22.2872 82.8765C20.8707 83.1884 19.8191 81.785 19.5641 80.0779C19.309 78.3709 19.9565 77.0003 21.3612 76.6926C22.7659 76.3848 24.1314 77.5133 24.3865 79.2203V79.2244Z" fill="black"/>
<path d="M21.5613 85.4538L21.9027 86.8326C21.9162 86.8822 21.9412 86.9276 21.9754 86.9648C22.0096 87.002 22.052 87.0299 22.0988 87.046L23.7979 84.9942H23.7194C23.7259 84.8809 23.7585 84.771 23.8146 84.6738C23.8706 84.5766 23.9484 84.495 24.0411 84.4362V84.4362V82.4624L21.5613 85.4538Z" fill="#DF7962"/>
<path opacity="0.1" d="M21.5613 85.4538L21.9027 86.8326C21.9162 86.8822 21.9412 86.9276 21.9754 86.9648C22.0096 87.002 22.052 87.0299 22.0988 87.046L23.7979 84.9942H23.7194C23.7259 84.8809 23.7585 84.771 23.8146 84.6738C23.8706 84.5766 23.9484 84.495 24.0411 84.4362V84.4362V82.4624L21.5613 85.4538Z" fill="black"/>
<path d="M20.2626 81.9375C20.1535 81.7759 20.0564 81.6058 19.9722 81.4287L18.3399 83.3943C18.3303 83.495 18.3051 83.5934 18.2653 83.6856L17.8102 84.6992C17.7497 84.8261 17.7265 84.9688 17.7435 85.1095L20.2547 82.0812L20.2626 81.9375Z" fill="#DF7962"/>
<path opacity="0.1" d="M20.2626 81.9375C20.1535 81.7759 20.0564 81.6058 19.9722 81.4287L18.3399 83.3943C18.3303 83.495 18.3051 83.5934 18.2653 83.6856L17.8102 84.6992C17.7497 84.8261 17.7265 84.9688 17.7435 85.1095L20.2547 82.0812L20.2626 81.9375Z" fill="black"/>
<path d="M21.3181 71.2432C21.2537 71.3217 21.2201 71.4229 21.224 71.5263L21.3064 72.9215C21.2995 73.0352 21.2667 73.1456 21.2108 73.2434C21.1548 73.3412 21.0772 73.4236 20.9846 73.4837C20.863 73.5698 20.7452 73.656 20.6314 73.7545C20.447 73.9145 20.2077 73.9966 20.086 73.9186L19.8859 73.7873L19.8506 73.1882C19.8468 73.0809 19.8835 72.9763 19.9526 72.8969V72.8969L21.3181 71.2432Z" fill="#DF7962"/>
<path opacity="0.1" d="M21.3181 71.2432C21.2537 71.3217 21.2201 71.4229 21.224 71.5263L21.3064 72.9215C21.2995 73.0352 21.2667 73.1456 21.2108 73.2434C21.1548 73.3412 21.0772 73.4236 20.9846 73.4837C20.863 73.5698 20.7452 73.656 20.6314 73.7545C20.447 73.9145 20.2077 73.9966 20.086 73.9186L19.8859 73.7873L19.8506 73.1882C19.8468 73.0809 19.8835 72.9763 19.9526 72.8969V72.8969L21.3181 71.2432Z" fill="black"/>
<path d="M19.3327 75.3469L19.2699 75.3921C19.0894 75.5521 18.8501 75.6342 18.7284 75.5562L18.6382 73.3403L17.2688 74.9817C17.2395 75.0161 17.2133 75.0532 17.1903 75.0925L16.586 76.1676C16.4605 76.3933 16.4369 76.66 16.5389 76.7626L17.4807 77.7516C17.5306 77.8159 17.5607 77.8946 17.567 77.9772L19.4073 75.7573L19.3327 75.3469Z" fill="#DF7962"/>
<path opacity="0.1" d="M19.3327 75.3469L19.2699 75.3921C19.0894 75.5521 18.8501 75.6342 18.7284 75.5562L18.6382 73.3403L17.2688 74.9817C17.2395 75.0161 17.2133 75.0532 17.1903 75.0925L16.586 76.1676C16.4605 76.3933 16.4369 76.66 16.5389 76.7626L17.4807 77.7516C17.5306 77.8159 17.5607 77.8946 17.567 77.9772L19.4073 75.7573L19.3327 75.3469Z" fill="black"/>
<path d="M16.1936 82.1218L17.8926 80.07L17.5002 78.3835C17.4215 78.3529 17.34 78.3309 17.257 78.3179L15.8836 79.9593C15.8504 80.0027 15.8259 80.0527 15.8118 80.1063C15.7976 80.1599 15.794 80.216 15.8012 80.2711L16.0366 81.8468C16.0411 81.9021 16.0576 81.9556 16.0848 82.0033C16.112 82.0509 16.1492 82.0914 16.1936 82.1218V82.1218Z" fill="#DF7962"/>
<path opacity="0.1" d="M16.1936 82.1218L17.8926 80.07L17.5002 78.3835C17.4215 78.3529 17.34 78.3309 17.257 78.3179L15.8836 79.9593C15.8504 80.0027 15.8259 80.0527 15.8118 80.1063C15.7976 80.1599 15.794 80.216 15.8012 80.2711L16.0366 81.8468C16.0411 81.9021 16.0576 81.9556 16.0848 82.0033C16.112 82.0509 16.1492 82.0914 16.1936 82.1218V82.1218Z" fill="black"/>
<path d="M22.7269 70.833L21.5262 71.0956C21.4384 71.1172 21.3604 71.1699 21.3054 71.2446C21.2504 71.3193 21.2217 71.4116 21.2241 71.5059L21.3065 72.9011C21.2996 73.0149 21.2669 73.1253 21.2109 73.2231C21.1549 73.3209 21.0774 73.4032 20.9847 73.4633C20.862 73.5462 20.7441 73.6366 20.6316 73.7341C20.4471 73.89 20.2078 73.9762 20.0901 73.8982L19.0032 73.1842C18.8815 73.1063 18.6814 73.2253 18.5519 73.4469L17.9477 74.4973C17.8221 74.7189 17.7986 74.9857 17.9006 75.0924L18.8423 76.0813C18.8951 76.1697 18.9291 76.269 18.942 76.3724C18.9548 76.4757 18.9463 76.5808 18.9169 76.6804C18.8669 76.8926 18.8289 77.1077 18.8031 77.3246C18.7879 77.4342 18.746 77.5378 18.6814 77.6255C18.6168 77.7132 18.5316 77.782 18.4342 77.8253L17.4415 78.1782C17.3527 78.2083 17.2761 78.2688 17.2242 78.3499C17.1722 78.431 17.1479 78.5281 17.155 78.6254L17.3905 80.1971C17.4039 80.2844 17.4479 80.3634 17.5139 80.4187C17.5799 80.474 17.6631 80.5018 17.7475 80.4966L18.8619 80.4022C18.9465 80.3974 19.0306 80.4181 19.1043 80.4617C19.178 80.5054 19.2382 80.5701 19.2778 80.6484C19.3898 80.9025 19.521 81.1467 19.6702 81.3789C19.7103 81.4821 19.7282 81.5933 19.7228 81.7046C19.7174 81.8159 19.6887 81.9246 19.6388 82.0231L19.1837 83.0326C19.0817 83.2624 19.0856 83.5209 19.1837 83.6152L20.3177 84.5673C20.4315 84.6616 20.6433 84.5673 20.7924 84.358L21.3849 83.5373C21.5341 83.328 21.7773 83.2049 21.9029 83.2582C22.1174 83.3359 22.3379 83.3935 22.5621 83.4306C22.6449 83.4501 22.7212 83.4924 22.7833 83.5529C22.8454 83.6135 22.8909 83.6902 22.9152 83.7753L23.2605 85.1705C23.286 85.2538 23.3404 85.3241 23.4131 85.3674C23.4858 85.4108 23.5714 85.4239 23.6529 85.4044L24.8301 85.1417C24.9179 85.1201 24.9958 85.0674 25.0509 84.9927C25.1059 84.918 25.1346 84.8257 25.1322 84.7314L25.0537 83.3362C25.0606 83.2225 25.0933 83.1121 25.1493 83.0143C25.2053 82.9165 25.2828 82.8341 25.3755 82.774C25.4976 82.6921 25.6143 82.6016 25.7247 82.5032C25.9091 82.3473 26.1485 82.2611 26.2701 82.3391L27.357 83.0531C27.4747 83.131 27.6788 83.0161 27.8044 82.7905L28.4086 81.74C28.4706 81.6563 28.5084 81.5557 28.5174 81.4503C28.5264 81.3448 28.5064 81.2389 28.4596 81.145L27.5728 80.156C27.52 80.0676 27.486 79.9683 27.4732 79.865C27.4603 79.7616 27.4689 79.6565 27.4983 79.5569C27.5454 79.3476 27.5846 79.1466 27.6121 78.9127C27.6275 78.8037 27.6696 78.7008 27.7342 78.6138C27.7988 78.5268 27.8838 78.4587 27.9809 78.4162L28.9737 78.0592C29.0614 78.0286 29.1371 77.9686 29.1889 77.8885C29.2407 77.8083 29.2657 77.7125 29.2601 77.616L29.0207 76.0403C29.009 75.9529 28.9661 75.8734 28.9006 75.8178C28.835 75.7622 28.7518 75.7347 28.6676 75.7407L27.5532 75.8351C27.4682 75.8392 27.3838 75.8183 27.3096 75.7748C27.2354 75.7312 27.1744 75.6668 27.1334 75.5889C27.0215 75.3348 26.8903 75.0905 26.741 74.8585C26.7009 74.7552 26.683 74.644 26.6884 74.5327C26.6938 74.4214 26.7225 74.3127 26.7724 74.2142L27.2275 73.2048C27.2816 73.1181 27.3103 73.0169 27.3103 72.9134C27.3103 72.81 27.2816 72.7087 27.2275 72.6221L26.0622 71.6537C25.9523 71.5593 25.7404 71.6537 25.5874 71.867L24.9988 72.6877C24.8458 72.897 24.6064 73.0201 24.4769 72.9668C24.2639 72.8887 24.0446 72.831 23.8217 72.7944C23.7391 72.7747 23.6628 72.733 23.6002 72.6733C23.5376 72.6136 23.4909 72.538 23.4646 72.4538L23.1232 71.0545C23.0954 70.9726 23.0394 70.9045 22.9661 70.8635C22.8928 70.8225 22.8075 70.8116 22.7269 70.833ZM25.76 77.5626C26.0151 79.2697 25.0773 80.9029 23.6608 81.2106C22.2443 81.5184 20.9141 80.3899 20.6394 78.6788C20.3647 76.9676 21.3222 75.3386 22.7347 75.0308C24.1473 74.723 25.505 75.8556 25.76 77.5626V77.5626Z" fill="#DF7962"/>
<path d="M45.6735 79.1958L44.3747 80.8741C44.3206 80.9492 44.2879 81.0389 44.2806 81.1326L44.104 84.0912C44.094 84.2002 44.0563 84.3045 43.995 84.3932C43.9336 84.4819 43.8507 84.5519 43.7548 84.596C43.3008 84.7845 42.8657 85.0195 42.456 85.2977C42.3825 85.3595 42.2938 85.3985 42.2001 85.4101C42.1065 85.4217 42.0115 85.4055 41.9263 85.3633L39.8349 83.4675C39.7289 83.369 39.5131 83.4675 39.3561 83.6563L37.6571 85.8516C37.5002 86.0527 37.4413 86.3194 37.5316 86.4425L39.2345 88.8348C39.2782 88.9361 39.3007 89.0459 39.3007 89.157C39.3007 89.268 39.2782 89.3778 39.2345 89.4791C39.1207 89.7581 39.0226 90.0495 38.9324 90.3449L37.0018 90.4106L35.6991 92.093C35.6428 92.171 35.6125 92.2661 35.6128 92.3638L35.7187 95.6753C35.716 95.7651 35.7436 95.8529 35.7967 95.9235C35.8499 95.994 35.925 96.0427 36.0091 96.061L38.5282 96.3072C38.6114 96.3236 38.6888 96.3631 38.7524 96.4216C38.8159 96.4801 38.8632 96.5554 38.8892 96.6396C39.0648 97.2673 39.2973 97.8761 39.5837 98.4575C39.6092 98.5694 39.6119 98.6857 39.5916 98.7988C39.5714 98.912 39.5286 99.0193 39.466 99.114L38.1201 101.289C37.9828 101.51 37.9514 101.777 38.0495 101.888L40.1409 104.256C40.239 104.366 40.4587 104.313 40.6314 104.133L42.3422 102.364C42.5148 102.188 42.7346 102.105 42.8758 102.183C43.3639 102.481 43.8825 102.721 44.4218 102.897C44.5015 102.933 44.571 102.989 44.6233 103.061C44.6756 103.133 44.709 103.218 44.72 103.308L45.0889 106.324C45.0983 106.411 45.1376 106.492 45.1997 106.552C45.2617 106.611 45.3422 106.646 45.4263 106.648L48.173 106.554C48.216 106.551 48.258 106.539 48.296 106.518C48.3339 106.496 48.367 106.467 48.3927 106.43V106.43L49.6915 104.752L49.7975 102.323C49.9754 102.224 50.148 102.118 50.3154 102.003C50.3887 101.94 50.4776 101.901 50.5716 101.89C50.6656 101.879 50.7606 101.897 50.8452 101.941L52.9366 103.837C53.0425 103.936 53.2583 103.837 53.4153 103.644L55.1143 101.453C55.2712 101.248 55.3301 100.985 55.2399 100.858L53.5369 98.4657C53.4933 98.3651 53.4708 98.256 53.4708 98.1456C53.4708 98.0352 53.4933 97.9261 53.5369 97.8255C53.745 97.3022 53.9104 96.7613 54.0313 96.2088C54.0522 96.1033 54.0996 96.0055 54.1685 95.9254C54.2375 95.8454 54.3255 95.786 54.4237 95.7533L56.8565 95.3429C56.9406 95.3265 57.016 95.2783 57.0684 95.2075V95.2075L58.3632 93.5333L57.0527 91.6211C57.0505 91.5327 57.021 91.4473 56.9687 91.3778C56.9164 91.3083 56.844 91.2583 56.7623 91.2354L54.2432 90.9892C54.0902 90.9892 53.9881 90.784 54.0078 90.5788C54.0898 89.7091 53.9839 88.8312 53.6978 88.01C53.6723 87.8963 53.6702 87.7781 53.6919 87.6635C53.7136 87.5488 53.7584 87.4404 53.8233 87.3453L54.6474 86.0158C54.7847 85.7942 54.8161 85.5274 54.718 85.4166L52.6266 83.049C52.5285 82.9382 52.3087 82.9956 52.1361 83.1721L51.01 84.3333C50.9446 84.4138 50.8601 84.4747 50.7651 84.51C50.67 84.5453 50.5677 84.5537 50.4685 84.5344C49.799 84.3097 49.0927 84.2301 48.3927 84.3005C48.3091 84.3053 48.2268 84.2766 48.1626 84.2201C48.0985 84.1637 48.0573 84.0839 48.0474 83.9969L47.6786 80.9808C47.6693 80.8929 47.6301 80.8114 47.5682 80.7512C47.5062 80.6909 47.4257 80.6559 47.3412 80.6525L46.6506 79.2286L45.6735 79.1958ZM51.0139 93.4923C51.1081 96.5863 49.4679 98.5642 46.9056 98.6503C44.3433 98.7365 42.197 96.258 42.0911 93.1681C41.9851 90.0782 43.6606 88.1455 46.2032 88.0675C48.7459 87.9895 50.9158 90.4024 51.0139 93.4923Z" fill="#DF7962"/>
<path opacity="0.3" d="M45.6735 79.1958L44.3747 80.8741C44.3206 80.9492 44.2879 81.0389 44.2806 81.1326L44.104 84.0912C44.094 84.2002 44.0563 84.3045 43.995 84.3932C43.9336 84.4819 43.8507 84.5519 43.7548 84.596C43.3008 84.7845 42.8657 85.0195 42.456 85.2977C42.3825 85.3595 42.2938 85.3985 42.2001 85.4101C42.1065 85.4217 42.0115 85.4055 41.9263 85.3633L39.8349 83.4675C39.7289 83.369 39.5131 83.4675 39.3561 83.6563L37.6571 85.8516C37.5002 86.0527 37.4413 86.3194 37.5316 86.4425L39.2345 88.8348C39.2782 88.9361 39.3007 89.0459 39.3007 89.157C39.3007 89.268 39.2782 89.3778 39.2345 89.4791C39.1207 89.7581 39.0226 90.0495 38.9324 90.3449L37.0018 90.4106L35.6991 92.093C35.6428 92.171 35.6125 92.2661 35.6128 92.3638L35.7187 95.6753C35.716 95.7651 35.7436 95.8529 35.7967 95.9235C35.8499 95.994 35.925 96.0427 36.0091 96.061L38.5282 96.3072C38.6114 96.3236 38.6888 96.3631 38.7524 96.4216C38.8159 96.4801 38.8632 96.5554 38.8892 96.6396C39.0648 97.2673 39.2973 97.8761 39.5837 98.4575C39.6092 98.5694 39.6119 98.6857 39.5916 98.7988C39.5714 98.912 39.5286 99.0193 39.466 99.114L38.1201 101.289C37.9828 101.51 37.9514 101.777 38.0495 101.888L40.1409 104.256C40.239 104.366 40.4587 104.313 40.6314 104.133L42.3422 102.364C42.5148 102.188 42.7346 102.105 42.8758 102.183C43.3639 102.481 43.8825 102.721 44.4218 102.897C44.5015 102.933 44.571 102.989 44.6233 103.061C44.6756 103.133 44.709 103.218 44.72 103.308L45.0889 106.324C45.0983 106.411 45.1376 106.492 45.1997 106.552C45.2617 106.611 45.3422 106.646 45.4263 106.648L48.173 106.554C48.216 106.551 48.258 106.539 48.296 106.518C48.3339 106.496 48.367 106.467 48.3927 106.43V106.43L49.6915 104.752L49.7975 102.323C49.9754 102.224 50.148 102.118 50.3154 102.003C50.3887 101.94 50.4776 101.901 50.5716 101.89C50.6656 101.879 50.7606 101.897 50.8452 101.941L52.9366 103.837C53.0425 103.936 53.2583 103.837 53.4153 103.644L55.1143 101.453C55.2712 101.248 55.3301 100.985 55.2399 100.858L53.5369 98.4657C53.4933 98.3651 53.4708 98.256 53.4708 98.1456C53.4708 98.0352 53.4933 97.9261 53.5369 97.8255C53.745 97.3022 53.9104 96.7613 54.0313 96.2088C54.0522 96.1033 54.0996 96.0055 54.1685 95.9254C54.2375 95.8454 54.3255 95.786 54.4237 95.7533L56.8565 95.3429C56.9406 95.3265 57.016 95.2783 57.0684 95.2075V95.2075L58.3632 93.5333L57.0527 91.6211C57.0505 91.5327 57.021 91.4473 56.9687 91.3778C56.9164 91.3083 56.844 91.2583 56.7623 91.2354L54.2432 90.9892C54.0902 90.9892 53.9881 90.784 54.0078 90.5788C54.0898 89.7091 53.9839 88.8312 53.6978 88.01C53.6723 87.8963 53.6702 87.7781 53.6919 87.6635C53.7136 87.5488 53.7584 87.4404 53.8233 87.3453L54.6474 86.0158C54.7847 85.7942 54.8161 85.5274 54.718 85.4166L52.6266 83.049C52.5285 82.9382 52.3087 82.9956 52.1361 83.1721L51.01 84.3333C50.9446 84.4138 50.8601 84.4747 50.7651 84.51C50.67 84.5453 50.5677 84.5537 50.4685 84.5344C49.799 84.3097 49.0927 84.2301 48.3927 84.3005C48.3091 84.3053 48.2268 84.2766 48.1626 84.2201C48.0985 84.1637 48.0573 84.0839 48.0474 83.9969L47.6786 80.9808C47.6693 80.8929 47.6301 80.8114 47.5682 80.7512C47.5062 80.6909 47.4257 80.6559 47.3412 80.6525L46.6506 79.2286L45.6735 79.1958ZM51.0139 93.4923C51.1081 96.5863 49.4679 98.5642 46.9056 98.6503C44.3433 98.7365 42.197 96.258 42.0911 93.1681C41.9851 90.0782 43.6606 88.1455 46.2032 88.0675C48.7459 87.9895 50.9158 90.4024 51.0139 93.4923Z" fill="black"/>
<path d="M40.5215 84.0912L39.8309 83.4675C39.725 83.369 39.5091 83.4675 39.3522 83.6563L37.6532 85.8516C37.4962 86.0527 37.4374 86.3194 37.5276 86.4425L39.2306 88.8348C39.2591 88.8834 39.2766 88.9381 39.2816 88.9949L41.4632 86.1758L40.5215 84.0912Z" fill="#DF7962"/>
<path opacity="0.1" d="M40.5215 84.0912L39.8309 83.4675C39.725 83.369 39.5091 83.4675 39.3522 83.6563L37.6532 85.8516C37.4962 86.0527 37.4374 86.3194 37.5276 86.4425L39.2306 88.8348C39.2591 88.8834 39.2766 88.9381 39.2816 88.9949L41.4632 86.1758L40.5215 84.0912Z" fill="black"/>
<path d="M44.6182 103.078C44.6639 103.148 44.6935 103.228 44.7045 103.312L45.0733 106.328C45.0871 106.401 45.1181 106.468 45.1636 106.525L46.635 104.625L46.533 100.608L44.6182 103.078Z" fill="#DF7962"/>
<path opacity="0.1" d="M44.6182 103.078C44.6639 103.148 44.6935 103.228 44.7045 103.312L45.0733 106.328C45.0871 106.401 45.1181 106.468 45.1636 106.525L46.635 104.625L46.533 100.608L44.6182 103.078Z" fill="black"/>
<path d="M38.0179 101.465C37.9856 101.529 37.9688 101.599 37.9688 101.671C37.9688 101.742 37.9856 101.813 38.0179 101.876L40.1093 104.244C40.1358 104.269 40.1681 104.287 40.2032 104.296C40.2383 104.304 40.2749 104.303 40.3095 104.293L41.9849 102.134L40.023 98.8516L38.0179 101.465Z" fill="#DF7962"/>
<path opacity="0.1" d="M38.0179 101.465C37.9856 101.529 37.9688 101.599 37.9688 101.671C37.9688 101.742 37.9856 101.813 38.0179 101.876L40.1093 104.244C40.1358 104.269 40.1681 104.287 40.2032 104.296C40.2383 104.304 40.2749 104.303 40.3095 104.293L41.9849 102.134L40.023 98.8516L38.0179 101.465Z" fill="black"/>
<path d="M35.864 96.0036L37.9319 93.3322L37.8377 90.3818L36.9862 90.4106L35.6835 92.093C35.6272 92.171 35.5969 92.2661 35.5972 92.3638L35.7031 95.6753C35.7036 95.7394 35.7184 95.8024 35.7463 95.8594C35.7742 95.9164 35.8145 95.9658 35.864 96.0036Z" fill="#DF7962"/>
<path opacity="0.1" d="M35.864 96.0036L37.9319 93.3322L37.8377 90.3818L36.9862 90.4106L35.6835 92.093C35.6272 92.171 35.5969 92.2661 35.5972 92.3638L35.7031 95.6753C35.7036 95.7394 35.7184 95.8024 35.7463 95.8594C35.7742 95.9164 35.8145 95.9658 35.864 96.0036Z" fill="black"/>
<path d="M48.6402 78.9785L45.8935 79.0729C45.8047 79.0858 45.7235 79.1321 45.665 79.2031C45.6066 79.2741 45.5748 79.3649 45.5756 79.4586L45.3991 82.4172C45.3879 82.5258 45.3498 82.6295 45.2885 82.718C45.2273 82.8066 45.145 82.8768 45.0498 82.9219C44.5938 83.1087 44.1573 83.3438 43.7471 83.6236C43.6739 83.6862 43.5849 83.7253 43.491 83.7362C43.397 83.7471 43.302 83.7294 43.2174 83.6852L41.1299 81.7894C41.0201 81.695 40.8042 81.7894 40.6473 81.9822L38.9522 84.1735C38.7952 84.3786 38.7403 84.6454 38.8266 84.7685L40.5296 87.1608C40.5741 87.2611 40.5972 87.3703 40.5972 87.4809C40.5972 87.5914 40.5741 87.7007 40.5296 87.8009C40.3232 88.325 40.1578 88.8657 40.0352 89.4177C40.015 89.5235 39.968 89.6217 39.8989 89.7019C39.8298 89.7821 39.7413 89.8413 39.6428 89.8732L37.21 90.2835C37.1229 90.306 37.0459 90.359 36.9916 90.4336C36.9373 90.5083 36.9092 90.6001 36.9118 90.6939L37.0138 94.0054C37.0162 94.0944 37.0462 94.1801 37.0993 94.2497C37.1524 94.3192 37.2257 94.3689 37.3081 94.3911L39.8233 94.6373C39.9075 94.6521 39.9862 94.691 40.0506 94.7497C40.115 94.8083 40.1626 94.8845 40.1882 94.9697C40.3624 95.5973 40.5936 96.206 40.8788 96.7875C40.9075 96.8992 40.9118 97.0162 40.8914 97.1298C40.871 97.2435 40.8265 97.3509 40.7611 97.4441L39.4152 99.6189C39.2779 99.8405 39.2465 100.107 39.3446 100.218L41.4399 102.586C41.538 102.697 41.7577 102.639 41.9304 102.463L43.6373 100.694C43.8099 100.518 44.0296 100.436 44.1709 100.509C44.6654 100.811 45.1922 101.051 45.7404 101.223C45.8197 101.259 45.8887 101.316 45.941 101.388C45.9932 101.46 46.0268 101.544 46.0386 101.634L46.4075 104.65C46.416 104.738 46.455 104.82 46.5171 104.88C46.5792 104.941 46.6602 104.976 46.7449 104.978L49.4916 104.884C49.5784 104.866 49.657 104.819 49.7147 104.749C49.7723 104.679 49.8057 104.59 49.8095 104.498L49.986 101.539C49.9968 101.43 50.0352 101.326 50.0972 101.237C50.1593 101.148 50.2428 101.078 50.3392 101.035C50.7928 100.845 51.2278 100.61 51.638 100.333C51.7112 100.27 51.8002 100.231 51.8941 100.22C51.9881 100.209 52.0831 100.227 52.1677 100.271L54.2552 102.163C54.365 102.262 54.5808 102.163 54.7378 101.974L56.4368 99.779C56.5099 99.7035 56.5606 99.6077 56.5829 99.5029C56.6051 99.398 56.598 99.2887 56.5624 99.1881L54.8594 96.7957C54.8148 96.6948 54.7917 96.5848 54.7917 96.4736C54.7917 96.3624 54.8148 96.2525 54.8594 96.1515C55.0665 95.6291 55.2318 95.0897 55.3538 94.5388C55.3736 94.4328 55.4205 94.3344 55.4896 94.2542C55.5588 94.1739 55.6475 94.1149 55.7462 94.0833L58.179 93.673C58.2661 93.6505 58.3431 93.5976 58.3974 93.5229C58.4517 93.4482 58.4798 93.3564 58.4772 93.2627L58.3752 89.9512C58.3778 89.8608 58.3496 89.7725 58.2957 89.7019C58.2418 89.6312 58.1657 89.5829 58.0809 89.5654L55.5657 89.3192C55.4821 89.3042 55.404 89.2651 55.3403 89.2064C55.2766 89.1477 55.2296 89.0717 55.2047 88.9868C55.0275 88.3597 54.795 87.7512 54.5102 87.169C54.4815 87.0573 54.4772 86.9404 54.4976 86.8267C54.518 86.7131 54.5625 86.6057 54.6279 86.5125L55.9738 84.3376C56.1111 84.116 56.1425 83.8493 56.0444 83.7385L53.9491 81.3708C53.851 81.26 53.6313 81.3134 53.4586 81.4939L51.7518 83.2625C51.5791 83.439 51.3398 83.521 51.2181 83.4431C50.729 83.1444 50.209 82.9049 49.6682 82.7291C49.589 82.6932 49.5199 82.6366 49.4677 82.5648C49.4154 82.4929 49.3818 82.4081 49.37 82.3187L49.0011 79.3027C48.9922 79.2105 48.9498 79.1255 48.8826 79.0652C48.8154 79.0048 48.7286 78.9738 48.6402 78.9785ZM52.2932 91.8182C52.3913 94.9081 50.3941 97.4851 47.8358 97.5631C45.2774 97.6411 43.1272 95.2159 43.0251 92.126C42.9231 89.0361 44.9243 86.455 47.4826 86.3811C50.041 86.3073 52.2108 88.7283 52.2932 91.8182Z" fill="#DF7962"/>
<path d="M45.6775 79.1958C45.6175 79.2709 45.5831 79.3647 45.5794 79.4625L45.4028 82.417C45.392 82.5258 45.3541 82.6297 45.2928 82.7182C45.2315 82.8068 45.149 82.877 45.0536 82.9217C44.7417 83.0496 44.4388 83.2005 44.1472 83.3731L44.2806 81.1367C44.2872 81.0416 44.3199 80.9504 44.3748 80.8741V80.8741L45.6775 79.1958Z" fill="#DF7962"/>
<path d="M45.6775 79.1958C45.6175 79.2709 45.5831 79.3647 45.5794 79.4625L45.4028 82.417C45.392 82.5258 45.3541 82.6297 45.2928 82.7182C45.2315 82.8068 45.149 82.877 45.0536 82.9217C44.7417 83.0496 44.4388 83.2005 44.1472 83.3731L44.2806 81.1367C44.2872 81.0416 44.3199 80.9504 44.3748 80.8741V80.8741L45.6775 79.1958Z" fill="#DF7962"/>
<path opacity="0.1" d="M45.6775 79.1958C45.6175 79.2709 45.5831 79.3647 45.5794 79.4625L45.4028 82.417C45.392 82.5258 45.3541 82.6297 45.2928 82.7182C45.2315 82.8068 45.149 82.877 45.0536 82.9217C44.7417 83.0496 44.4388 83.2005 44.1472 83.3731L44.2806 81.1367C44.2872 81.0416 44.3199 80.9504 44.3748 80.8741V80.8741L45.6775 79.1958Z" fill="black"/>
<path d="M126.571 153.005C130.244 149.144 135.361 147.026 140.528 146.337C145.696 145.647 150.942 146.271 156.063 147.272C158.044 147.683 160.269 148.056 161.949 146.862C163.628 145.668 164.075 143.025 163.318 141.006C162.561 138.987 160.87 137.494 159.069 136.423C152.465 132.488 143.605 133.05 137.374 137.605C131.88 141.622 128.569 147.198 126.587 153.005" fill="#DF7962"/>
<path opacity="0.3" d="M126.571 153.005C130.244 149.144 135.361 147.026 140.528 146.337C145.696 145.647 150.942 146.271 156.063 147.272C158.044 147.683 160.269 148.056 161.949 146.862C163.628 145.668 164.075 143.025 163.318 141.006C162.561 138.987 160.87 137.494 159.069 136.423C152.465 132.488 143.605 133.05 137.374 137.605C131.88 141.622 128.569 147.198 126.587 153.005" fill="black"/>
<path d="M154.631 128.643C153.624 128.741 152.632 128.971 151.68 129.328C151.248 129.492 150.852 129.738 150.436 129.923C149.987 130.14 149.553 130.39 149.137 130.67C149.231 130.354 149.363 130.052 149.53 129.771C149.971 128.896 150.54 128.098 151.217 127.407C153.364 125.168 155.936 123.424 158.767 122.286C160.635 121.529 162.599 121.06 164.597 120.895C167.242 120.686 170.13 121.109 172.053 123.033C172.943 123.932 173.579 125.233 173.336 126.501C173.222 126.989 173.01 127.446 172.714 127.842C172.419 128.238 172.046 128.564 171.621 128.799C170.768 129.259 169.833 129.53 168.874 129.595C166.52 129.841 164.119 129.48 161.76 129.115C159.402 128.749 157.001 128.401 154.631 128.643Z" fill="#DF7962"/>
<path opacity="0.15" d="M154.631 128.643C153.624 128.741 152.632 128.971 151.68 129.328C151.248 129.492 150.852 129.738 150.436 129.923C149.987 130.14 149.553 130.39 149.137 130.67C149.231 130.354 149.363 130.052 149.53 129.771C149.971 128.896 150.54 128.098 151.217 127.407C153.364 125.168 155.936 123.424 158.767 122.286C160.635 121.529 162.599 121.06 164.597 120.895C167.242 120.686 170.13 121.109 172.053 123.033C172.943 123.932 173.579 125.233 173.336 126.501C173.222 126.989 173.01 127.446 172.714 127.842C172.419 128.238 172.046 128.564 171.621 128.799C170.768 129.259 169.833 129.53 168.874 129.595C166.52 129.841 164.119 129.48 161.76 129.115C159.402 128.749 157.001 128.401 154.631 128.643Z" fill="black"/>
<path d="M155.372 111.33C152.041 117.243 147.576 121.589 142.467 125.725C144.727 121.01 145.586 115.848 145.932 110.637C146.277 105.425 145.351 100.21 144.774 95.0433C144.448 92.1135 144.515 89.0318 145.72 86.3604C146.924 83.6891 149.475 81.5347 152.296 81.5758C154.768 81.6127 157.028 83.3197 158.315 85.5274C159.602 87.7351 160.05 90.3736 160.148 92.9588C160.399 99.4423 158.527 105.733 155.372 111.33Z" fill="#DF7962"/>
<path d="M155.6 80.2706C156.691 80.6639 157.681 81.3116 158.497 82.1648C159.313 83.0179 159.932 84.0541 160.308 85.1948C160.438 85.6051 160.618 86.1017 161.027 86.1468C161.493 86.2002 161.772 85.6134 161.811 85.1291C162.161 81.3129 158.237 80.2296 155.6 80.2706Z" fill="#DF7962"/>
<path opacity="0.4" d="M155.6 80.2706C156.691 80.6639 157.681 81.3116 158.497 82.1648C159.313 83.0179 159.932 84.0541 160.308 85.1948C160.438 85.6051 160.618 86.1017 161.027 86.1468C161.493 86.2002 161.772 85.6134 161.811 85.1291C162.161 81.3129 158.237 80.2296 155.6 80.2706Z" fill="white"/>
<path d="M60.1641 144.018C63.9114 147.018 67.5488 151.142 68.7573 156.054C70.2484 148.159 68.0314 139.344 63.9545 132.664C60.0307 126.217 52.6068 120.165 44.869 123.251C42.907 124.038 41.208 125.86 40.9687 128.056C40.7607 129.997 41.6867 131.921 43.0051 133.3C44.3235 134.679 46.0108 135.602 47.6706 136.488C51.9633 138.77 56.3423 140.957 60.1641 144.018Z" fill="#DF7962"/>
<path opacity="0.15" d="M60.1641 144.018C63.9114 147.018 67.5488 151.142 68.7573 156.054C70.2484 148.159 68.0314 139.344 63.9545 132.664C60.0307 126.217 52.6068 120.165 44.869 123.251C42.907 124.038 41.208 125.86 40.9687 128.056C40.7607 129.997 41.6867 131.921 43.0051 133.3C44.3235 134.679 46.0108 135.602 47.6706 136.488C51.9633 138.77 56.3423 140.957 60.1641 144.018Z" fill="black"/>
<path d="M68.0983 107.908C67.9413 110.497 66.7485 113.583 66.0893 115.585C65.1005 118.593 64.1666 121.831 64.9435 124.904C62.8757 122.097 60.9137 118.893 60.0034 115.466C59.0499 111.851 59.1676 107.735 61.8123 104.879C63.5349 103.02 67.1056 102.893 67.9178 105.79C68.0941 106.48 68.1551 107.196 68.0983 107.908V107.908Z" fill="#DF7962"/>
<path opacity="0.3" d="M68.0983 107.908C67.9413 110.497 66.7485 113.583 66.0893 115.585C65.1005 118.593 64.1666 121.831 64.9435 124.904C62.8757 122.097 60.9137 118.893 60.0034 115.466C59.0499 111.851 59.1676 107.735 61.8123 104.879C63.5349 103.02 67.1056 102.893 67.9178 105.79C68.0941 106.48 68.1551 107.196 68.0983 107.908V107.908Z" fill="black"/>
<path d="M13.4468 137.092C25.7323 146.612 42.0908 141.466 55.5417 148.274C52.0417 141.015 42.8795 139.324 36.4326 133.846C30.488 128.79 27.965 123.973 23.123 120.001C19.1285 116.718 12.8425 115.532 9.2208 119.25C6.84295 121.712 6.325 125.676 7.3609 128.991C8.39679 132.307 10.7668 135.015 13.4468 137.092Z" fill="#DF7962"/>
<path d="M26.2936 101.412C27.4785 102.948 28.318 104.743 28.7499 106.665C29.362 109.451 29.3189 112.34 29.2757 115.196C28.4007 112.553 26.529 110.358 24.3317 108.774C21.1926 106.505 17.4767 105.356 13.7373 104.67C12.7824 104.547 11.8439 104.312 10.9396 103.969C10.487 103.796 10.0715 103.531 9.7173 103.189C9.36305 102.848 9.077 102.436 8.87566 101.978C8.59377 101.139 8.62886 100.219 8.97375 99.4055C9.75852 97.3989 11.5988 96.5331 13.545 96.1227C18.3517 95.1789 23.3154 97.5056 26.2936 101.412Z" fill="#DF7962"/>
<path opacity="0.5" d="M26.2936 101.412C27.4785 102.948 28.318 104.743 28.7499 106.665C29.362 109.451 29.3189 112.34 29.2757 115.196C28.4007 112.553 26.529 110.358 24.3317 108.774C21.1926 106.505 17.4767 105.356 13.7373 104.67C12.7824 104.547 11.8439 104.312 10.9396 103.969C10.487 103.796 10.0715 103.531 9.7173 103.189C9.36305 102.848 9.077 102.436 8.87566 101.978C8.59377 101.139 8.62886 100.219 8.97375 99.4055C9.75852 97.3989 11.5988 96.5331 13.545 96.1227C18.3517 95.1789 23.3154 97.5056 26.2936 101.412Z" fill="white"/>
<path d="M46.2147 117.666C47.359 117.459 48.5361 117.601 49.6049 118.076C50.8146 118.644 51.8087 119.617 52.4301 120.842C52.2104 120.407 50.4682 120.226 50.0326 120.169C48.5276 119.948 46.9992 119.971 45.5006 120.234C44.738 120.388 43.9953 120.635 43.2875 120.969C43.0129 121.096 41.4669 121.79 41.4473 122.106C41.5336 120.612 42.5302 119.295 43.7741 118.552C44.53 118.105 45.3568 117.805 46.2147 117.666V117.666Z" fill="#DF7962"/>
</svg>
